
<svg width="500" height="500" viewBox="0 0 500 500" xmlns="http://www.w3.org/2000/svg">
  <defs>
    <linearGradient id="grad1" x1="0%" y1="0%" x2="100%" y2="0%">
      <stop offset="0%" style="stop-color:#f7941d;stop-opacity:1" />
      <stop offset="100%" style="stop-color:#00b4db;stop-opacity:1" />
    </linearGradient>
    <linearGradient id="grad2" x1="0%" y1="0%" x2="100%" y2="0%">
      <stop offset="0%" style="stop-color:#f7941d;stop-opacity:1" />
      <stop offset="100%" style="stop-color:#00b4db;stop-opacity:1" />
    </linearGradient>
  </defs>

  <!-- Background circle -->
  <circle cx="250" cy="250" r="250" fill="#062c5b" />

  <!-- Rounded square with person -->
  <rect x="90" y="140" rx="30" ry="30" width="160" height="160" fill="url(#grad2)" />
  <circle cx="170" cy="180" r="30" fill="#002f4b" />
  <path d="M130 220 Q170 190, 210 220 Q190 260, 150 260 Q130 250, 130 220" fill="#f7941d" />
  <polygon points="160,220 180,220 170,250" fill="#ffffff" />
  <rect x="167" y="220" width="6" height="20" fill="#f7941d" />

  <!-- Sparkle icon -->
  <polygon points="105,125 110,135 115,125 110,115" fill="#f7941d" />
  <circle cx="95" cy="275" r="5" fill="#f7941d" />

  <!-- ME text -->
  <text x="270" y="210" font-family="Verdana" font-size="80" fill="url(#grad1)">ME</text>
  <text x="270" y="260" font-family="Verdana" font-size="20" fill="#ffffff">MY EMPLOYEE</text>
</svg>
